<?xml version="1.0" encoding="utf-8"?>
<!-- Generator: Adobe Illustrator 16.0.0, SVG Export Plug-In . SVG Version: 6.00 Build 0)  -->
<!DOCTYPE svg PUBLIC "-//W3C//DTD SVG 1.1//EN" "http://www.w3.org/Graphics/SVG/1.1/DTD/svg11.dtd">
<svg version="1.1" id="Layer_1" xmlns="http://www.w3.org/2000/svg" xmlns:xlink="http://www.w3.org/1999/xlink" x="0px" y="0px"
	 width="595.275px" height="570.476px" viewBox="0 0 595.275 570.476" enable-background="new 0 0 595.275 570.476"
	 xml:space="preserve">
<g>
	<linearGradient id="SVGID_1_" gradientUnits="userSpaceOnUse" x1="353.8359" y1="460.7051" x2="231.5966" y2="149.1073">
		<stop  offset="0" style="stop-color:#635BA8"/>
		<stop  offset="1" style="stop-color:#57CBF5"/>
	</linearGradient>
	<path fill-rule="evenodd" clip-rule="evenodd" fill="url(#SVGID_1_)" d="M478.981,199.308c18.252-18.253,18.252-47.847,0-66.099
		c-38.908-38.908-92.658-62.972-152.029-62.972c-118.742,0-215.001,96.259-215.001,215.001c0,23.048,3.642,45.244,10.355,66.058
		l-0.023-0.019c7.899,24.89,8.675,61.943-7.222,91.827l-8.461,14.655l0.025-0.04c-2.552,4.226-4.021,9.179-4.021,14.476
		c0,15.488,12.555,28.044,28.043,28.044c5.3,0,10.257-1.472,14.484-4.026l-0.048,0.029l15.727-9.08
		c14.713-8.494,46.846-19.45,68.718-10.211l-0.005-0.009c29.249,14.894,62.356,23.296,97.428,23.296
		c59.371,0,113.121-24.064,152.028-62.972c18.253-18.252,18.253-47.846,0-66.099c-18.252-18.253-47.846-18.253-66.099,0v-0.001
		c-21.991,21.991-52.372,35.593-85.93,35.593c-67.115,0-121.522-54.407-121.522-121.522c0-67.115,54.408-121.522,121.522-121.522
		c33.558,0,63.938,13.602,85.93,35.593l0,0C431.135,217.561,460.729,217.561,478.981,199.308L478.981,199.308z M452.541,159.649
		c3.65,3.65,3.65,9.569,0,13.219s-9.568,3.65-13.219,0h-0.001c-28.758-28.757-68.486-46.544-112.369-46.544
		c-87.766,0-158.914,71.148-158.914,158.914s71.148,158.914,158.914,158.914c43.883,0,83.611-17.787,112.369-46.544l0,0
		c3.65-3.65,9.569-3.65,13.22,0s3.65,9.569,0,13.22c-32.141,32.141-76.543,52.021-125.589,52.021
		c-98.091,0-177.609-79.519-177.609-177.61s79.519-177.61,177.609-177.61C375.998,107.628,420.4,127.508,452.541,159.649z"/>
</g>
</svg>